<svg xmlns="http://www.w3.org/2000/svg" width="192" height="192" viewBox="0 0 192 192">
  <defs>
    <linearGradient id="grad" x1="0%" y1="0%" x2="100%" y2="100%">
      <stop offset="0%" style="stop-color:#C67B5C"/>
      <stop offset="100%" style="stop-color:#A65D3F"/>
    </linearGradient>
  </defs>
  <!-- Rounded square background -->
  <rect x="16" y="16" width="160" height="160" rx="40" ry="40" fill="url(#grad)"/>
  <!-- Leaf icon (from Lucide) -->
  <g transform="translate(96, 96) rotate(3) translate(-96, -96)">
    <path 
      d="M96 52c-24 0-44 20-44 44s20 44 44 44c8 0 16-2.4 22.4-6.4C124.8 140 136 124 136 108c0-12-4-24-12-32-8-8-20-24-28-24z" 
      fill="none" 
      stroke="white" 
      stroke-width="6" 
      stroke-linecap="round" 
      stroke-linejoin="round"
    />
    <path 
      d="M96 52c0 32 16 56 40 56" 
      fill="none" 
      stroke="white" 
      stroke-width="6" 
      stroke-linecap="round" 
      stroke-linejoin="round"
    />
    <path 
      d="M76 140c12-12 20-28 20-44" 
      fill="none" 
      stroke="white" 
      stroke-width="6" 
      stroke-linecap="round" 
      stroke-linejoin="round"
    />
  </g>
</svg>
