<svg xmlns="http://www.w3.org/2000/svg" width="512" height="512" viewBox="0 0 512 512">
  <defs>
    <linearGradient id="grad" x1="0%" y1="0%" x2="100%" y2="100%">
      <stop offset="0%" style="stop-color:#C67B5C"/>
      <stop offset="100%" style="stop-color:#A65D3F"/>
    </linearGradient>
  </defs>
  <!-- Rounded square background -->
  <rect x="32" y="32" width="448" height="448" rx="96" ry="96" fill="url(#grad)"/>
  <!-- Leaf icon (from Lucide) scaled -->
  <g transform="translate(256, 256) rotate(3) translate(-256, -256)">
    <path 
      d="M256 128c-72 0-128 56-128 128s56 128 128 128c24 0 48-8 64-20 20-16 48-56 48-100 0-36-12-68-36-92-24-24-56-44-76-44z" 
      fill="none" 
      stroke="white" 
      stroke-width="16" 
      stroke-linecap="round" 
      stroke-linejoin="round"
    />
    <path 
      d="M256 128c0 96 48 160 116 160" 
      fill="none" 
      stroke="white" 
      stroke-width="16" 
      stroke-linecap="round" 
      stroke-linejoin="round"
    />
    <path 
      d="M196 384c36-36 60-84 60-128" 
      fill="none" 
      stroke="white" 
      stroke-width="16" 
      stroke-linecap="round" 
      stroke-linejoin="round"
    />
  </g>
</svg>
