<svg xmlns="http://www.w3.org/2000/svg" width="100" height="100" viewBox="0 0 100 100">
  <defs>
    <linearGradient id="grad" x1="0%" y1="0%" x2="100%" y2="100%">
      <stop offset="0%" style="stop-color:#C67B5C"/>
      <stop offset="100%" style="stop-color:#A65D3F"/>
    </linearGradient>
  </defs>
  <!-- Rounded square background -->
  <rect x="8" y="8" width="84" height="84" rx="20" ry="20" fill="url(#grad)"/>
  <!-- Leaf icon -->
  <g transform="translate(50, 50) rotate(3) translate(-50, -50)">
    <path 
      d="M50 26c-13 0-23 10-23 23s10 23 23 23c4 0 8-1 12-3 5-4 12-14 12-26 0-6-2-12-6-17-4-4-10-0-18 0z" 
      fill="none" 
      stroke="white" 
      stroke-width="3" 
      stroke-linecap="round" 
      stroke-linejoin="round"
    />
    <path 
      d="M50 26c0 17 8 29 21 29" 
      fill="none" 
      stroke="white" 
      stroke-width="3" 
      stroke-linecap="round" 
      stroke-linejoin="round"
    />
    <path 
      d="M40 72c6-6 10-15 10-23" 
      fill="none" 
      stroke="white" 
      stroke-width="3" 
      stroke-linecap="round" 
      stroke-linejoin="round"
    />
  </g>
</svg>
